<?xml version="1.0" encoding="UTF-8"?>
<!DOCTYPE svg PUBLIC "-//W3C//DTD SVG 1.1//EN" "http://www.w3.org/Graphics/SVG/1.1/DTD/svg11.dtd">
<!-- Creator: CorelDRAW X8 -->
<svg xmlns="http://www.w3.org/2000/svg" xml:space="preserve" width="0.111673in" height="0.158858in" version="1.1" style="shape-rendering:geometricPrecision; text-rendering:geometricPrecision; image-rendering:optimizeQuality; fill-rule:evenodd; clip-rule:evenodd"
viewBox="0 0 2 3"
 xmlns:xlink="http://www.w3.org/1999/xlink">
 <defs>
  <style type="text/css">
   <![CDATA[
    .fil0 {fill:white}
   ]]>
  </style>
 </defs>
 <g id="Layer_x0020_1">
  <metadata id="CorelCorpID_0Corel-Layer"/>
  <g id="_2950835195360">
   <path class="fil0" d="M1 1c1,0 1,0 1,0 0,-1 0,-1 -1,-1 0,0 -1,0 -1,1 0,0 1,0 1,0z"/>
   <path class="fil0" d="M2 3c0,0 0,0 -1,0 0,0 -1,0 -1,0l0 -1c0,0 0,0 1,0l0 0c1,0 1,0 1,0l0 1z"/>
  </g>
 </g>
</svg>
