<?xml version="1.0" encoding="UTF-8"?>
<!DOCTYPE svg PUBLIC "-//W3C//DTD SVG 1.1//EN" "http://www.w3.org/Graphics/SVG/1.1/DTD/svg11.dtd">
<!-- Creator: CorelDRAW X8 -->
<svg xmlns="http://www.w3.org/2000/svg" xml:space="preserve" width="0.286051in" height="0.286051in" version="1.1" style="shape-rendering:geometricPrecision; text-rendering:geometricPrecision; image-rendering:optimizeQuality; fill-rule:evenodd; clip-rule:evenodd"
viewBox="0 0 449 449"
 xmlns:xlink="http://www.w3.org/1999/xlink">
 <defs>
  <style type="text/css">
   <![CDATA[
    .fil1 {fill:red}
    .fil2 {fill:white}
    .fil0 {fill:red;fill-opacity:0.501961}
   ]]>
  </style>
 </defs>
 <g id="Layer_x0020_1">
  <metadata id="CorelCorpID_0Corel-Layer"/>
  <path class="fil0" d="M225 0c124,0 224,101 224,225 0,124 -100,224 -224,224 -124,0 -225,-100 -225,-224 0,-124 101,-225 225,-225z"/>
  <circle class="fil1" cx="225" cy="225" r="169"/>
  <g id="_2950834555680">
   <g id="Play">
    <path class="fil2" d="M279 214l-96 -60c-2,-1 -6,-1 -9,-1 -10,0 -10,8 -10,10l0 123c0,2 0,10 10,10 3,0 7,0 9,-1l96 -60c7,-5 6,-10 6,-10 0,0 1,-6 -6,-11z"/>
   </g>
   <g>
   </g>
   <g>
   </g>
   <g>
   </g>
   <g>
   </g>
   <g>
   </g>
   <g>
   </g>
   <g>
   </g>
   <g>
   </g>
   <g>
   </g>
   <g>
   </g>
   <g>
   </g>
   <g>
   </g>
   <g>
   </g>
   <g>
   </g>
   <g>
   </g>
  </g>
 </g>
</svg>
